<svg version="1.1" id="Layer_1" xmlns="http://www.w3.org/2000/svg" xmlns:xlink="http://www.w3.org/1999/xlink" x="0px" y="0px"
	 viewBox="0 0 512 512" style="enable-background:new 0 0 512 512;" xml:space="preserve">
<style type="text/css">
	.st0{fill:#053447;}
</style>
<g>
	<path class="st0" d="M492,359.6l-33.3,15.2l-34.6-76.2c0,0-8.3,47.1-39.1,97.4c-32.9,57.8-93.3,96-161.7,96
		c-114.6,0-202.6-96-202.6-222.1c0-125.3,88-221.2,202.6-221.2c68.4,0,134.7,38.9,167.6,94.9C433.8,210,492,359.6,492,359.6z
		 M234.8,428.9c81.7,0,148.4-68.4,148.4-156.4c0-92.4-67.5-160.8-149.3-160.8c-82.6,0-148.4,72.9-148.4,158.2
		C85.6,356.1,151.3,428.9,234.8,428.9z"/>
</g>
<polygon class="st0" points="424.1,176.7 397.8,122.7 385.3,20.2 407.5,53.4 "/>
</svg>
