<?xml version="1.0" encoding="utf-8"?>
<!-- Generator: Adobe Illustrator 25.4.1, SVG Export Plug-In . SVG Version: 6.00 Build 0)  -->
<svg version="1.1" id="Layer_1" xmlns="http://www.w3.org/2000/svg" xmlns:xlink="http://www.w3.org/1999/xlink" x="0px" y="0px"
	 viewBox="0 0 1024 400" style="enable-background:new 0 0 1024 400;" xml:space="preserve">
<style type="text/css">
	.st0{fill:#536C83;}
</style>
<g>
	<path class="st0" d="M335.5,118.1c-27.7,0-51.6,16.5-64.1,40.1v-37.9h-9v220.5h9V233.2c12.4,23.6,36.4,40.1,64.1,40.1
		c40.4,0,73.1-35.1,73.1-77.4C408.6,153.3,375.9,118.1,335.5,118.1z M335.5,264c-34.8,0-64.1-29.2-64.1-69.7
		c0-38.3,29.2-66.6,64.1-66.6c35.1,0,64.1,30.8,64.1,68.1C399.6,232.9,370.7,264,335.5,264z"/>
	<polygon class="st0" points="464.9,67.5 455.9,67.5 455.6,120.3 430.1,120.3 430.1,128.7 455.6,128.7 455.9,269.6 464.9,269.6 
		464.6,128.7 499.4,128.7 499.4,120.3 464.6,120.3 	"/>
	<path class="st0" d="M531.4,58.4c-5,0-9.3,4-9.3,9.3c0,5,4.4,8.7,9.3,8.7c5.3,0,9.6-3.7,9.6-8.7C541.1,62.5,536.7,58.4,531.4,58.4z
		"/>
	<rect x="526.8" y="120.3" class="st0" width="9" height="149.3"/>
	<path class="st0" d="M914.6,118.1c-40.1,0-73.1,30.5-73.1,77.1c0,47.3,33,78.1,73.1,78.1s73.4-30.8,73.4-78.1
		C988,148.6,954.7,118.1,914.6,118.1z M914.6,264c-35.1,0-64.1-27.4-64.1-68.7c0-41.1,28.9-67.5,64.1-67.5s64.4,26.4,64.4,67.5
		C979,236.6,949.7,264,914.6,264z"/>
	<path class="st0" d="M215.6,196.5c0.3,2.9,2.7,5.1,5.6,5.1c3.3,0,6-2.9,5.7-6.2c-5-52.3-44.6-85.8-91.8-85.8
		c-30.4,0-57.5,13.9-74.3,37.8c-2.1,2.9-0.9,7,2.3,8.4l0.3,0.1c2.4,1.1,5.3,0.3,6.9-1.8c13.7-19.1,35.2-30.7,59.4-32.2v24
		c-29.4,2.6-52.6,26.1-52.6,61c0,13.1,3.2,24.6,8.7,34l-20,11.6c-7.1-12.9-11.3-28.4-11.3-45.9c0-12.5,2.1-23.9,6-34
		c1.1-2.8-0.2-6-3-7.2l-0.2-0.1c-3-1.3-6.5,0.1-7.6,3.2c-4.2,11.4-6.6,24.2-6.6,38.1c0,59.5,41.5,98.2,91.9,98.2
		c46.9,0,86.3-33.4,91.7-85.9c0.3-3.3-2.3-6.3-5.7-6.3l0,0c-2.9,0-5.3,2.2-5.6,5.1c-1.4,12.8-5,24.4-10.6,34.3l-20-11.6
		c5.4-9.4,8.5-20.7,8.5-33.6c0-34.8-23.4-58.3-52.6-61v-24C179.5,124.5,211.3,152.8,215.6,196.5z M181.6,206.9
		c0,28.7-14.2,45.9-36.4,49.8c-2.6,0.5-4.6,2.8-4.6,5.5l0,0c0,3.5,3.2,6.2,6.7,5.5c12.2-2.5,23-8.8,31.1-18.1l20.5,11.8
		c-14.9,20-38.1,31.7-63.8,31.7c-25.6,0-48.5-11.5-63.3-31.3L92.3,250c8,9.1,18.6,15.2,30.6,17.7c3.5,0.7,6.7-1.9,6.7-5.5l0,0
		c0-2.7-1.9-5-4.5-5.5C103,252.8,89,235.6,89,206.9c0-32.6,18.3-49,46.2-49C163.1,158,181.6,174.3,181.6,206.9z"/>
	<path class="st0" d="M750.3,118.1c-20.4,0-48.8,9.2-56.3,42.7c-7.4-33.5-35.9-42.7-56.3-42.7c-32.3,0-57.2,24.9-57.2,64.7v86.8h9
		v-86.8c0-33.9,20.8-55,48.2-55c28,0,51.9,16.2,51.9,64.7v77.1h4.1v0.1h4.6v-77.1c0-48.5,23.9-64.7,51.9-64.7
		c27.4,0,48.2,21.1,48.2,55v86.8h9v-86.8C807.5,143,782.7,118.1,750.3,118.1z"/>
</g>
</svg>
