<?xml version="1.0" encoding="utf-8"?>
<!-- Generator: Adobe Illustrator 25.4.1, SVG Export Plug-In . SVG Version: 6.00 Build 0)  -->
<svg version="1.1" id="Layer_1" xmlns="http://www.w3.org/2000/svg" xmlns:xlink="http://www.w3.org/1999/xlink" x="0px" y="0px"
	 viewBox="0 0 1920 1344" style="enable-background:new 0 0 1920 1344;" xml:space="preserve">
<style type="text/css">
	.st0{fill:#8A9BAB;}
	.st1{fill:#54728C;}
	.st2{fill:#FFFFFF;}
</style>
<path class="st0" d="M68.8,623.1c0,0,4.8-403.6,214.8-415.1c209.9-11.5,610.5,185.5,635.7,415.1c25.2,229.6-479.9,495.5-676.7,429.9
	S68.8,623.1,68.8,623.1z"/>
<path class="st1" d="M68.7,622.9c0,0,4.8-403.6,214.8-415.1S894,393.2,919.3,622.9c25.2,229.6-417,253.2-603.7,210.5
	C113.3,787.1,68.7,622.9,68.7,622.9z"/>
<path class="st1" d="M1858.9,773.2c-0.2,0.8-0.6,1.5-0.7,2.3c-0.7,12.4-3.9,24.3-9,35.5c-15.8,34.5-42,56.8-78.7,66.5
	c-11,2.9-22.2,3.5-33.5,3.3c-11.5-0.3-22.8-1.7-33.7-5.6c-11.6-4.2-21.7-10.9-31.5-19c7.8-11,15.5-21.8,23.3-32.7
	c0.4,0.2,0.8,0.2,0.9,0.3c4.8,5.4,11,8.3,17.8,10.1c9.5,2.6,19.3,3.2,29.1,3.2c9.7,0,19.2-1.7,28.1-5.6
	c24.1-10.7,38.6-29.1,43.3-55.1c0.8-4.3,0.9-8.8,1-13.2c0.2-6.8,0.1-13.7,0-20.5c0-1-0.1-1.9-0.2-3.4c-1.1,0.7-1.8,1.1-2.5,1.5
	c-6.1,4.6-12.8,8.2-19.9,10.8c-6.8,2.5-13.7,5.1-21,6c-10.9,1.4-21.5,0.5-32.1-2.7c-27.6-8.2-46-26.8-58.6-51.9
	c-6.4-12.8-10.3-26.3-11.7-40.5c-0.6-5.8-1-11.6-1-17.4c-0.1-36.3,0-72.7,0-109c0-1.2,0-2.4,0-3.5c2.1-0.7,39.4-1,43.7-0.3
	c0.1,1,0.2,2.1,0.2,3.1c0,11.9,0,23.9,0,35.8c0,27.5-0.1,54.9,0.1,82.4c0.1,13.4,3.2,26.4,9.4,38.4c3.3,6.5,7.7,12.2,13.5,16.7
	c6.8,5.3,14.6,8.2,23.3,8.6c19.9,1,34.4-8.1,44.7-24.6c6.1-9.7,9.6-20.4,11-31.7c0.7-5.4,1-10.9,1-16.3c0.1-36.2,0-72.3,0-108.5
	c0-1.3,0-2.6,0-4.1c1.4-0.1,2.4-0.2,3.5-0.2c12.2,0,24.4,0,36.6,0c1.2,0,2.4-0.1,3.6-0.2C1858.9,612.2,1858.9,692.7,1858.9,773.2z"
	/>
<path class="st1" d="M1026.7,551.8c1.5,0,3,0.1,4.4,0.1c14.6,0,29.2,0,43.8-0.2c2.2,0,3.3,0.7,4.2,2.6c10.8,21.7,28.2,35,52.1,38.9
	c38.2,6.3,72.2-16.9,81.7-51.2c11.2-40.3-13.3-80-52.7-89.3c-30.5-7.2-60.7,5-77.8,31.3c-0.9,1.4-1.8,2-3.5,2c-14.6,0-29.2,0-43.8,0
	c-0.7,0-1.4-0.1-2.5-0.2c0.4-1.4,0.8-2.6,1.2-3.8c7.5-19.2,19.5-35.1,35.6-48c12.2-9.8,25.6-17.1,40.6-21.7
	c13.1-4,26.6-5.6,40.3-4.7c53.2,3.3,94.8,41.2,106,89c2.6,11.3,3.6,22.7,2.6,34.1c-2.6,31.7-16.1,58.1-40.1,78.9
	c-16.4,14.2-35.4,23.2-56.8,26.4c-31.8,4.9-60.9-2.1-87.1-21.1c-1-0.7-1.9-1.3-3.3-2.3c-0.1,1.7-0.3,3-0.3,4.2c0,16.6,0,33.3,0,49.9
	c0,30.7,0,61.4,0,92.1c0,4.6,0,4.6-4.5,4.6c-12.2,0-24.4,0-36.6,0c-1.1,0-2.2-0.1-3.3-0.1C1026.7,693.1,1026.7,622.4,1026.7,551.8z"
	/>
<path class="st1" d="M1645,665.8c0,32.7,0,65.1,0,97.7c-1.1,0.1-2.1,0.3-3.1,0.3c-12.5,0-25,0-37.4,0c-0.5,0-0.9,0-1.4,0
	c-1.4,0-2-0.6-2-2.1c0.1-1.8,0-3.7,0-5.5c0-4.7,0-9.4,0-14.1c0-0.9,0-1.8,0-3.4c-1.3,0.9-2.2,1.4-2.9,1.9
	c-12.5,9.3-26.3,16-41.5,19.8c-11,2.8-22.2,3.7-33.5,3.2c-41.8-1.8-79.5-27.1-98.1-64.1c-5.9-11.8-9.9-24.3-11.4-37.4
	c-7.6-63.5,35.4-116.1,90.7-128c59.1-12.7,118.8,22.4,136,80.3c0.3,0.9,0.5,1.9,0.8,3.2c-1.3,0-2.2,0-3.1,0c-11.1,0-22.2,0-33.3-0.1
	c-4.1,0-8.1-0.3-12.2-0.2c-2.2,0.1-3.3-0.8-4.2-2.7c-8.4-16.6-21.4-28.4-38.8-35c-40-15.1-84.2,7.2-95.5,48.1
	c-11.1,40.3,13.1,81.2,53.6,90.4c37,8.4,73.9-12.8,85.1-49.1c0.2-0.5,0.4-1,0.5-1.6c0.3-1.4,1.1-1.8,2.4-1.7c0.4,0,0.7,0,1.1,0
	c15.1,0,30.1,0,45.2,0C1642.9,665.7,1643.8,665.8,1645,665.8z"/>
<path class="st1" d="M1322.1,433.6c0.1,1.5,0.2,2.5,0.2,3.5c0,73.5,0,147,0,220.5c0,5-0.3,10-0.1,15c0.5,9.8,2.6,19.2,7.3,27.9
	c5.1,9.6,12.6,16.5,22.7,20.6c4.7,1.9,9.6,2.3,14.7,2.1c10.6-0.6,19.8-4.8,28.3-10.9c1.9-1.3,3.7-2.7,5.8-4.3
	c7.6,11.4,15.2,22.6,22.7,33.9c-0.3,0.4-0.5,0.8-0.8,1c-11.7,9.9-24.7,17.6-39.9,20.9c-4.9,1.1-9.9,1.4-14.8,2
	c-1.4,0.2-2.8,0.4-4.1,0.4c-2.2,0-4.4-0.1-6.6-0.4c-3.2-0.4-6.4-0.9-9.6-1.5c-26.8-4.7-45.5-19.7-56.5-44.4c-4.6-10.2-7-21-8.5-32
	c-1.1-8.3-1.3-16.6-1.3-24.9c0-74.8,0-149.6,0-224.4c0-5.4-0.2-4.9,5-4.9c10.4,0,20.9,0,31.3,0
	C1319.4,433.6,1320.5,433.6,1322.1,433.6z"/>
<path class="st2" d="M70.3,641.6c0,0,2.5-201.8,109.7-207.7s311.7,90.4,324.6,207.7C517.5,758.8,259.5,890.3,159,856.8
	C58.6,823.3,70.3,641.6,70.3,641.6z"/>
	
</svg>
