<?xml version="1.0" encoding="utf-8"?>
<!-- Generator: Adobe Illustrator 25.4.1, SVG Export Plug-In . SVG Version: 6.00 Build 0)  -->
<svg version="1.1" id="Layer_1" xmlns="http://www.w3.org/2000/svg" xmlns:xlink="http://www.w3.org/1999/xlink" x="0px" y="0px"
	 viewBox="0 0 1024 400" style="enable-background:new 0 0 1024 400;" xml:space="preserve">
<style type="text/css">
	.st0{fill:#536D83;}
</style>
<g>
	<path class="st0" d="M318.5,182.2c7.1-7,15.3-12.5,24.7-16.5c9.4-4,19.4-6,30.1-6h1c3.9,0,7,1.1,9.1,3.4c2.2,2.3,3.3,5.1,3.3,8.5
		c0,3.4-1.2,6.2-3.6,8.4c-2.4,2.2-5.3,3.3-8.7,3.3h-1c-7.5,0-14.6,1.5-21.2,4.4c-6.6,2.9-12.4,6.8-17.4,11.8
		c-5,5-8.9,10.8-11.8,17.6c-2.9,6.8-4.4,14-4.4,21.6v58.5c0,3.3-1.1,6.1-3.4,8.4c-2.3,2.3-5.1,3.5-8.5,3.5c-3.3,0-6.1-1.2-8.4-3.5
		c-2.3-2.3-3.5-5.1-3.5-8.4v-72.8C297.5,198.1,318.5,182.2,318.5,182.2z"/>
	<path class="st0" d="M415.6,246.1c1,5.9,2.9,11.4,5.8,16.6c2.9,5.1,6.6,9.6,10.9,13.3c4.4,3.8,9.4,6.7,14.9,8.8
		c5.6,2.1,11.4,3.2,17.7,3.2c7.8,0,14.8-1.4,20.9-4.3c6.1-2.9,11.2-6.7,15.1-11.4c2.1-1.7,4.2-2.7,6.2-2.9c2-0.3,3.9-0.1,5.7,0.4
		c2.3,1,4.2,2.6,5.6,4.9c1.6,2.2,2.3,4.8,2.2,7.9c-0.1,3-1.5,5.7-4.3,8.2c-2.8,2.9-5.8,5.5-9.3,7.9c-3.4,2.4-7.3,4.5-11.5,6.3
		c-4.2,1.8-8.9,3.2-14,4.3c-5.1,1.1-10.6,1.6-16.7,1.6c-10.5,0-20.3-2-29.5-5.9c-9.2-3.9-17.2-9.3-24.1-16.1
		c-6.9-6.8-12.3-14.8-16.3-24c-4-9.2-5.9-19-5.9-29.5s2-20.3,5.9-29.5c4-9.2,9.4-17.2,16.3-24c6.9-6.8,14.9-12.2,24.1-16.2
		c9.2-4,19-5.9,29.5-5.9c10.4,0,20.1,2,29.3,5.9c9.2,3.9,17.2,9.3,24,16.1c6.8,6.8,12.2,14.8,16.3,23.9c4,9.1,6.1,18.8,6.2,29.2
		c0,3.4-1.1,6.1-3.3,8.2c-2.2,2.1-5,3.2-8.5,3.2H415.6z M516.3,226.1c-0.8-6.1-2.8-11.9-5.8-17.2c-3-5.3-6.8-10-11.3-13.9
		c-4.5-3.9-9.7-7-15.5-9.2c-5.8-2.2-12-3.3-18.6-3.3c-6.6,0-12.7,1.1-18.5,3.4c-5.8,2.3-10.9,5.4-15.3,9.3c-4.4,3.9-8.1,8.5-11,13.9
		c-2.9,5.3-4.8,11-5.6,17.1H516.3z"/>
	<path class="st0" d="M554.4,235.4c0-10.5,2-20.3,5.9-29.5c4-9.2,9.4-17.2,16.3-24c6.9-6.8,14.9-12.2,24.1-16.2
		c9.2-4,19-5.9,29.3-5.9s20.1,2,29.2,5.9c9.1,3.9,17.1,9.2,23.9,15.9c6.8,6.7,12.2,14.6,16.2,23.7c4,9.1,6.1,18.8,6.3,29.2v62.3
		c0,3.4-1.2,6.3-3.5,8.7c-2.3,2.4-5.2,3.6-8.7,3.6c-3.4,0-6.2-1.2-8.3-3.6c-2.2-2.4-3.3-5.3-3.3-8.7l-0.2-7.9
		c-6.8,6.6-14.5,11.9-23.3,16c-8.8,4-18.2,6.1-28.2,6.1c-10.4,0-20.1-2-29.3-5.9c-9.2-4-17.2-9.4-24.1-16.2
		c-6.9-6.9-12.3-14.9-16.3-24C556.3,255.7,554.4,245.9,554.4,235.4z M578.1,235.4c0,7.1,1.3,13.8,4.1,20c2.7,6.2,6.4,11.7,11,16.4
		c4.7,4.7,10.1,8.4,16.4,11.2c6.3,2.8,13.1,4.1,20.3,4.1c7.3,0,14.1-1.4,20.4-4.1c6.3-2.8,11.8-6.5,16.4-11.2s8.3-10.2,11-16.4
		c2.6-6.2,4-12.9,4-20c0-7.2-1.3-14-4-20.3c-2.6-6.3-6.3-11.8-11-16.4c-4.7-4.7-10.1-8.3-16.4-11c-6.3-2.7-13.1-4.1-20.4-4.1
		c-7.2,0-14,1.4-20.3,4.1c-6.3,2.7-11.8,6.4-16.4,11c-4.7,4.7-8.3,10.1-11,16.4C579.5,221.5,578.1,228.2,578.1,235.4z"/>
	<path class="st0" d="M761,297.4c0,3.3-1.2,6.1-3.5,8.3c-2.3,2.3-5.1,3.4-8.4,3.4c-3.3,0-6.1-1.1-8.4-3.4c-2.3-2.3-3.5-5-3.5-8.3
		V117.8c0-3.4,1.2-6.2,3.5-8.4c2.3-2.2,5.1-3.3,8.4-3.3c3.3,0,6.1,1.1,8.4,3.3c2.3,2.2,3.5,5,3.5,8.4V297.4z"/>
</g>
<path class="st0" d="M983.8,192.2c-2.6-6.4-6.2-12.1-10.7-16.9c-4.5-4.8-9.9-8.6-16.2-11.4c-6.2-2.8-13.1-4.2-20.5-4.2
	c-8.7,0-17.1,1.9-25.2,5.7c-8.1,3.8-15.1,8.9-20.8,15.4c-5.7-6.4-12.6-11.6-20.8-15.4c-8.1-3.8-16.5-5.7-25.2-5.7
	c-7.4,0-14.2,1.4-20.5,4.2c-6.2,2.8-11.6,6.6-16.2,11.4c-4.5,4.8-8.1,10.4-10.7,16.9c-2.6,6.4-4,13.3-4.2,20.6v84.6
	c0,3.3,1.1,6,3.4,8.3c2.3,2.3,5,3.4,8.2,3.4c3.3,0,6.1-1.1,8.6-3.4c2.4-2.3,3.6-5,3.6-8.3v-84.5c0.1-4.2,1-8.1,2.5-11.7
	c1.6-3.5,3.7-6.6,6.4-9.3c2.7-2.6,5.8-4.7,9.4-6.2c3.6-1.5,7.4-2.2,11.5-2.2c4.2,0,8.3,0.8,12.3,2.4c4,1.6,7.5,3.8,10.7,6.5
	c3.1,2.8,5.6,5.9,7.5,9.6c1.9,3.6,2.8,7.5,2.9,11.5v83.9c0,3.3,1.2,6.1,3.5,8.3c2,2,4.4,3,7,3.3c2.6-0.3,5-1.3,7-3.3
	c2.3-2.3,3.5-5,3.5-8.3v-83.9c0.1-4,1.1-7.9,2.9-11.5c1.9-3.6,4.3-6.8,7.5-9.6c3.1-2.7,6.7-4.9,10.7-6.5c4-1.6,8.1-2.4,12.3-2.4
	c4.1,0,8,0.7,11.5,2.2c3.5,1.5,6.7,3.5,9.4,6.2c2.7,2.6,4.8,5.7,6.4,9.3c1.6,3.5,2.4,7.4,2.5,11.7v84.5c0,3.3,1.2,6.1,3.6,8.3
	c2.4,2.3,5.3,3.4,8.6,3.4c3.2,0,5.9-1.1,8.2-3.4c2.3-2.3,3.4-5,3.4-8.3v-84.6C987.8,205.5,986.4,198.6,983.8,192.2z"/>
<g>
	<g>
		<polygon class="st0" points="34,266.5 126.9,107.4 169.7,107.4 167.1,171.5 		"/>
		<polygon class="st0" points="269.8,307.6 34.5,307.8 34.5,267.7 93,241.3 		"/>
		<polygon class="st0" points="171.4,107.4 269.8,269.6 269.8,306 191.3,263.6 		"/>
	</g>
</g>
</svg>
