<?xml version="1.0" encoding="utf-8"?>
<!-- Generator: Adobe Illustrator 25.4.1, SVG Export Plug-In . SVG Version: 6.00 Build 0)  -->
<svg version="1.1" id="Layer_1" xmlns="http://www.w3.org/2000/svg" xmlns:xlink="http://www.w3.org/1999/xlink" x="0px" y="0px"
	 viewBox="0 0 512 224" style="enable-background:new 0 0 512 224;" xml:space="preserve">
<style type="text/css">
	.st0{fill:#013447;}
	.st1{opacity:0.4;fill:#003447;}
	.st2{fill:none;stroke:#003447;stroke-width:8;stroke-miterlimit:10;}
</style>
<path class="st0" d="M212,141.3c-2.8-0.9-5.6-1.9-8.3-3c-2.7-1.1-5.1-2.6-7.1-4.2c-2.1-1.7-3.7-3.6-5-5.9c-1.3-2.3-1.9-5-1.9-8.1
	c0-3.4,0.7-6.4,2.2-9c1.5-2.5,3.4-4.6,5.8-6.3c2.4-1.7,5-2.9,8-3.7c2.9-0.8,5.8-1.2,8.8-1.2c5,0,9.5,1,13.4,3c3.9,2,7,5,9.2,9.2
	c0.7,1.3,0.6,2.3-0.2,3c-0.4,0.4-0.9,0.6-1.5,0.7c-0.5,0.1-1,0-1.5-0.4c-2.5-3.7-5.2-6.4-8.3-8c-3.1-1.6-6.7-2.4-10.8-2.4
	c-2.2,0-4.4,0.2-6.7,0.7c-2.3,0.5-4.4,1.3-6.3,2.5c-1.9,1.2-3.5,2.7-4.7,4.7c-1.2,1.9-1.8,4.3-1.8,7.1c0,2.5,0.5,4.6,1.5,6.3
	c1,1.8,2.3,3.3,4,4.5s3.6,2.3,5.8,3.2c2.2,0.9,4.5,1.7,6.8,2.4c3.7,1.1,7.3,2.4,10.7,3.6c3.4,1.3,6.4,2.8,9,4.5
	c2.6,1.8,4.6,3.8,6.1,6.3c1.5,2.4,2.3,5.4,2.3,8.9c0,3.2-0.7,6.2-2.1,8.9c-1.4,2.7-3.3,5.1-5.7,7.1s-5.2,3.6-8.4,4.7
	c-3.2,1.1-6.6,1.7-10.2,1.7c-6,0-11.4-1.2-16.1-3.5c-4.7-2.4-8.2-5.8-10.3-10.4c-0.4-0.8-0.6-1.5-0.4-2.2c0.2-0.7,0.6-1.1,1.1-1.4
	c0.6-0.3,1.2-0.4,1.9-0.2c0.7,0.1,1.3,0.6,1.9,1.3c2.1,4,5,6.9,8.7,8.7c3.7,1.8,8.1,2.8,13.4,2.8c2.7,0,5.3-0.4,7.8-1.2
	s4.8-2,6.7-3.5c2-1.5,3.5-3.3,4.7-5.5c1.2-2.1,1.8-4.5,1.8-7.1s-0.6-4.8-1.8-6.7c-1.2-1.9-2.9-3.5-5.1-5c-2.2-1.4-4.7-2.6-7.7-3.7
	C218.6,143.3,215.4,142.3,212,141.3z"/>
<path class="st0" d="M256.1,159.6c0,0.8-0.3,1.5-0.8,2c-0.5,0.5-1.1,0.8-1.9,0.8c-0.8,0-1.4-0.3-1.9-0.8c-0.5-0.5-0.8-1.2-0.8-2v-86
	c0-0.8,0.2-1.5,0.8-2c0.5-0.5,1.1-0.8,1.9-0.8c0.8,0,1.4,0.3,1.9,0.8c0.5,0.5,0.8,1.2,0.8,2V159.6z"/>
<path class="st0" d="M268.1,147.4c0-4.9,0.9-9.4,2.7-13.7c1.8-4.2,4.2-7.9,7.3-11.1c3.1-3.1,6.7-5.6,10.8-7.5
	c4.1-1.8,8.5-2.7,13.2-2.7c4.7,0,9.1,0.9,13.2,2.7c4.1,1.8,7.7,4.3,10.8,7.5c3.1,3.1,5.5,6.8,7.2,11.1c1.8,4.2,2.6,8.8,2.6,13.7
	c0,4.8-0.9,9.3-2.6,13.6c-1.8,4.2-4.2,7.9-7.2,11.1c-3.1,3.2-6.6,5.7-10.8,7.5c-4.1,1.8-8.5,2.7-13.2,2.7c-4.7,0-9.1-0.9-13.2-2.7
	c-4.1-1.8-7.7-4.3-10.8-7.5c-3.1-3.2-5.5-6.9-7.3-11.1C269,156.8,268.1,152.2,268.1,147.4z M273.4,147.4c0,4,0.7,7.8,2.2,11.4
	c1.5,3.6,3.5,6.7,6.1,9.4c2.6,2.7,5.6,4.8,9.1,6.4c3.5,1.6,7.2,2.4,11.2,2.4c4,0,7.8-0.8,11.3-2.4c3.5-1.6,6.5-3.7,9.1-6.4
	c2.6-2.7,4.6-5.8,6-9.4c1.5-3.6,2.2-7.4,2.2-11.4c0-4.1-0.7-7.9-2.2-11.5c-1.5-3.6-3.5-6.7-6.1-9.4c-2.6-2.7-5.6-4.8-9.1-6.3
	c-3.5-1.5-7.2-2.3-11.2-2.3c-4,0-7.7,0.8-11.2,2.3c-3.5,1.5-6.5,3.7-9.1,6.3c-2.6,2.7-4.6,5.8-6.1,9.4
	C274.2,139.5,273.4,143.3,273.4,147.4z"/>
<path class="st0" d="M343.9,147.4c0-4.9,0.9-9.4,2.7-13.7c1.8-4.2,4.2-7.9,7.3-11.1c3.1-3.1,6.7-5.6,10.8-7.5
	c4.1-1.8,8.5-2.7,13.2-2.7s9.1,0.9,13.2,2.7c4.1,1.8,7.7,4.3,10.8,7.5c3.1,3.1,5.5,6.8,7.2,11.1c1.8,4.2,2.6,8.8,2.6,13.7
	c0,4.8-0.9,9.3-2.6,13.6c-1.8,4.2-4.2,7.9-7.2,11.1c-3.1,3.2-6.6,5.7-10.8,7.5c-4.1,1.8-8.5,2.7-13.2,2.7s-9.1-0.9-13.2-2.7
	c-4.1-1.8-7.7-4.3-10.8-7.5c-3.1-3.2-5.5-6.9-7.3-11.1S343.9,152.2,343.9,147.4z M349.2,147.4c0,4,0.7,7.8,2.2,11.4
	c1.5,3.6,3.5,6.7,6.1,9.4c2.6,2.7,5.6,4.8,9.1,6.4c3.5,1.6,7.2,2.4,11.2,2.4s7.8-0.8,11.3-2.4c3.5-1.6,6.5-3.7,9.1-6.4
	c2.6-2.7,4.6-5.8,6-9.4c1.5-3.6,2.2-7.4,2.2-11.4c0-4.1-0.7-7.9-2.2-11.5c-1.5-3.6-3.5-6.7-6.1-9.4c-2.6-2.7-5.6-4.8-9.1-6.3
	c-3.5-1.5-7.2-2.3-11.2-2.3c-4,0-7.7,0.8-11.2,2.3c-3.5,1.5-6.5,3.7-9.1,6.3c-2.6,2.7-4.6,5.8-6.1,9.4
	C349.9,139.5,349.2,143.3,349.2,147.4z"/>
<path class="st0" d="M417.9,147.4c0-4.9,0.9-9.4,2.7-13.7c1.8-4.2,4.2-7.9,7.3-11.1c3.1-3.1,6.7-5.6,10.8-7.5
	c4.1-1.8,8.5-2.7,13.2-2.7s9.1,0.9,13.2,2.7c4.1,1.8,7.7,4.3,10.8,7.5c3.1,3.1,5.5,6.8,7.2,11.1c1.8,4.2,2.6,8.8,2.6,13.7
	c0,4.8-0.9,9.3-2.6,13.6c-1.8,4.2-4.2,7.9-7.2,11.1c-3.1,3.2-6.6,5.7-10.8,7.5c-4.1,1.8-8.5,2.7-13.2,2.7s-9.1-0.9-13.2-2.7
	c-4.1-1.8-7.7-4.3-10.8-7.5c-3.1-3.2-5.5-6.9-7.3-11.1C418.8,156.8,417.9,152.2,417.9,147.4z M423.2,147.4c0,4,0.7,7.8,2.2,11.4
	c1.5,3.6,3.5,6.7,6.1,9.4c2.6,2.7,5.6,4.8,9.1,6.4c3.5,1.6,7.2,2.4,11.2,2.4c4,0,7.8-0.8,11.3-2.4c3.5-1.6,6.5-3.7,9.1-6.4
	c2.6-2.7,4.6-5.8,6-9.4c1.5-3.6,2.2-7.4,2.2-11.4c0-4.1-0.7-7.9-2.2-11.5c-1.5-3.6-3.5-6.7-6.1-9.4c-2.6-2.7-5.6-4.8-9.1-6.3
	c-3.5-1.5-7.2-2.3-11.2-2.3c-4,0-7.7,0.8-11.2,2.3c-3.5,1.5-6.5,3.7-9.1,6.3c-2.6,2.7-4.6,5.8-6.1,9.4
	C423.9,139.5,423.2,143.3,423.2,147.4z"/>
<path class="st0" d="M422.6,129.9c1.5-2.6,3.2-4.9,5.3-7c2.1-2.1,4.3-3.9,6.8-5.4c2.5-1.5,5.2-2.7,8.1-3.5c2.9-0.8,5.9-1.2,9-1.2
	c4.7,0,9.1,0.9,13.2,2.7c4.1,1.8,7.7,4.3,10.7,7.4c3,3.1,5.4,6.8,7.2,11c1.7,4.2,2.6,8.8,2.6,13.6c0,4.8-0.9,9.3-2.6,13.5
	c-1.7,4.2-4.1,7.9-7.2,11c-3,3.2-6.6,5.7-10.7,7.5c-4.1,1.8-8.5,2.7-13.2,2.7c-3.1,0-6.1-0.4-9-1.2c-2.9-0.8-5.6-2-8.1-3.5
	c-2.5-1.5-4.8-3.3-6.8-5.5c-2.1-2.1-3.8-4.5-5.3-7.1v38.6c0,0.7-0.2,1.2-0.7,1.7c-0.5,0.4-1,0.7-1.7,0.7c-0.6,0-1.1-0.2-1.6-0.7
	c-0.4-0.4-0.7-1-0.7-1.7V147l0,0c0-3.9,1.4-9.5,2.1-11.4S422.6,129.9,422.6,129.9z M422.6,147.5c0,4.1,0.8,7.9,2.3,11.6
	c1.5,3.6,3.6,6.8,6.2,9.6c2.6,2.7,5.7,4.9,9.2,6.5c3.5,1.6,7.4,2.4,11.5,2.4c4.1,0,7.9-0.8,11.5-2.4c3.6-1.6,6.7-3.8,9.3-6.5
	c2.6-2.7,4.7-5.9,6.2-9.6s2.2-7.5,2.2-11.6c0-4.2-0.8-8.1-2.3-11.7c-1.5-3.6-3.6-6.8-6.2-9.6c-2.6-2.7-5.7-4.9-9.2-6.5
	c-3.5-1.6-7.4-2.4-11.5-2.4c-4.1,0-7.9,0.8-11.4,2.4c-3.6,1.6-6.7,3.7-9.3,6.5c-2.6,2.7-4.7,5.9-6.2,9.6
	C423.4,139.4,422.6,143.3,422.6,147.5z"/>
<path class="st0" d="M267.3,177.2c-3.6-0.7-10.5-3.5-11.3-16.2l0-4.9l-5.4,0.6l0.1,4.6c0.4,5.9,2.8,19.3,15.7,21.1
	c1.6,0.2,3-1.1,3-2.7v0C269.4,178.6,268.6,177.4,267.3,177.2z"/>
<path class="st1" d="M121.9,25.5c0,0,4-5.5,9.6,0c7.6,7.6-45.6,70.7,4,132.8c0,0,0.1,0.1,0.3,0.3c3.2,3.6,0.5,9.3-4.3,9.3H25
	c-2.4,0-4.7-1.5-5.4-3.9c-0.5-1.9-0.2-4.4,2.6-7.2C28.5,150.5,121.9,25.5,121.9,25.5z"/>
<path class="st2" d="M119.5,67.8c0,0,4-5.5,9.6,0c7.6,7.6-15.9,57.6,39.6,107.3c0,0,0.1,0.1,0.3,0.3c3.2,3.6,0.5,9.3-4.3,9.3H40.2
	c-2.4,0-4.7-1.5-5.4-3.9c-0.5-1.9-0.2-4.4,2.6-7.2C43.6,167.4,119.5,67.8,119.5,67.8z"/>


</svg>
